<?xml version="1.0" encoding="UTF-8"?>
<svg width="42px" height="42px" viewBox="0 0 42 42" version="1.1" xmlns="http://www.w3.org/2000/svg" xmlns:xlink="http://www.w3.org/1999/xlink">
    <!-- Generator: Sketch 41 (35326) - http://www.bohemiancoding.com/sketch -->
    <title>Outline Icon</title>
    <desc>Created with Sketch.</desc>
    <defs></defs>
    <g id="V2-Copy" stroke="none" stroke-width="1" fill="none" fill-rule="evenodd">
        <g id="HomePage" transform="translate(-268.000000, -1373.000000)" fill="#7B61D5">
            <g id="Community" transform="translate(102.000000, 1167.000000)">
                <g id="Outline-Icon" transform="translate(166.000000, 206.000000)">
                    <path d="M11.26125,17.5552933 L12.6351225,17.5552933 L17.5796775,22.4537452 C17.7459975,22.6185144 17.9677575,22.7043317 18.1929825,22.7043317 C18.3038625,22.7043317 18.416475,22.6820192 18.52389,22.6391106 C18.846135,22.5069519 19.0575,22.1928606 19.0575,21.8461587 L19.0575,17.5552933 L30.31875,17.5552933 C31.7515275,17.5552933 32.9175,16.4001923 32.9175,14.980774 L32.9175,2.96635096 C32.9175,1.54693269 31.7515275,0.391831731 30.31875,0.391831731 L11.26125,0.391831731 C9.8284725,0.391831731 8.6625,1.54693269 8.6625,2.96635096 L8.6625,14.980774 C8.6625,16.4001923 9.8284725,17.5552933 11.26125,17.5552933 L11.26125,17.5552933 Z M10.395,2.96635096 C10.395,2.49263942 10.78308,2.10817788 11.26125,2.10817788 L30.31875,2.10817788 C30.79692,2.10817788 31.185,2.49263942 31.185,2.96635096 L31.185,14.980774 C31.185,15.4527692 30.79692,15.8389471 30.31875,15.8389471 L18.19125,15.8389471 C17.71308,15.8389471 17.325,16.2234087 17.325,16.6971202 L17.325,19.7745288 L13.607055,16.09125 C13.4442,15.9299135 13.2241725,15.8389471 12.99375,15.8389471 L11.26125,15.8389471 C10.78308,15.8389471 10.395,15.4527692 10.395,14.980774 L10.395,2.96635096 L10.395,2.96635096 Z" id="Shape"></path>
                    <path d="M41.576535,35.3469375 C41.47605,32.2969904 39.57723,29.7001587 36.9039825,28.5381923 C38.1583125,27.5976346 38.9829825,26.1215769 38.9829825,24.4464231 C38.9829825,21.6058702 36.6510375,19.2973846 33.7854825,19.2973846 C30.9199275,19.2973846 28.5879825,21.6058702 28.5879825,24.4464231 C28.5879825,26.1198606 29.41092,27.5942019 30.661785,28.536476 C28.07343,29.6641154 26.247375,32.1476683 26.04294,35.0723221 C25.415775,34.5024952 24.7002525,34.0322163 23.9102325,33.6872308 C25.1645625,32.7466731 25.9892325,31.2706154 25.9892325,29.5954615 C25.9892325,26.7549087 23.6572875,24.4464231 20.7917325,24.4464231 C17.9261775,24.4464231 15.5942325,26.7549087 15.5942325,29.5954615 C15.5942325,31.268899 16.41717,32.7432404 17.668035,33.6855144 C16.8832125,34.0287837 16.178085,34.5059279 15.5526525,35.0706058 C15.3482175,32.1442356 13.5048375,29.6675481 10.9164825,28.5381923 C12.1708125,27.5976346 12.9954825,26.1215769 12.9954825,24.4464231 C12.9954825,21.6058702 10.6635375,19.2973846 7.7979825,19.2973846 C4.9324275,19.2973846 2.6004825,21.6058702 2.6004825,24.4464231 C2.6004825,26.1198606 3.42342,27.5942019 4.674285,28.536476 C1.92654,29.7310529 0,32.4445962 0,35.6009567 C0,36.0746683 0.38808,36.4591298 0.86625,36.4591298 L14.313915,36.4591298 C13.482315,37.6880337 12.99375,39.162375 12.99375,40.7499952 C12.99375,41.2237067 13.38183,41.6081683 13.86,41.6081683 L27.72,41.6081683 L27.75465,41.6081683 C28.23282,41.6081683 28.6209,41.2237067 28.6209,40.7499952 C28.6209,40.6624615 28.60704,40.5749279 28.582785,40.495976 C28.534275,39.0027548 28.042245,37.6245288 27.252225,36.4591298 L40.71375,36.4591298 L40.7484,36.4591298 C41.22657,36.4591298 41.61465,36.0746683 41.61465,35.6009567 C41.61465,35.5134231 41.60079,35.4276058 41.576535,35.3469375 L41.576535,35.3469375 Z M30.31875,24.4447067 C30.31875,22.5515769 31.8728025,21.0120144 33.78375,21.0120144 C35.6946975,21.0120144 37.24875,22.5515769 37.24875,24.4447067 C37.24875,26.3378365 35.6946975,27.877399 33.78375,27.877399 C31.8728025,27.877399 30.31875,26.3378365 30.31875,24.4447067 L30.31875,24.4447067 Z M17.325,29.5937452 C17.325,27.7006154 18.8790525,26.1610529 20.79,26.1610529 C22.7009475,26.1610529 24.255,27.7006154 24.255,29.5937452 C24.255,31.486875 22.7009475,33.0264375 20.79,33.0264375 C18.8790525,33.0264375 17.325,31.486875 17.325,29.5937452 L17.325,29.5937452 Z M4.33125,24.4447067 C4.33125,22.5515769 5.8853025,21.0120144 7.79625,21.0120144 C9.7071975,21.0120144 11.26125,22.5515769 11.26125,24.4447067 C11.26125,26.3378365 9.7071975,27.877399 7.79625,27.877399 C5.8853025,27.877399 4.33125,26.3378365 4.33125,24.4447067 L4.33125,24.4447067 Z M1.79487,34.7427837 C2.2158675,31.8352933 4.74705,29.5937452 7.79625,29.5937452 C10.84545,29.5937452 13.3766325,31.8352933 13.79763,34.7427837 L1.79487,34.7427837 L1.79487,34.7427837 Z M14.78862,39.8918221 C15.2096175,36.9843317 17.7408,34.7427837 20.79,34.7427837 C23.8392,34.7427837 26.3703825,36.9843317 26.79138,39.8918221 L14.78862,39.8918221 L14.78862,39.8918221 Z M27.78237,34.7427837 C28.2033675,31.8352933 30.73455,29.5937452 33.78375,29.5937452 C36.83295,29.5937452 39.3641325,31.8352933 39.78513,34.7427837 L27.78237,34.7427837 L27.78237,34.7427837 Z" id="Shape"></path>
                    <path d="M14.72625,5.54087019 L26.8000425,5.54087019 C27.2782125,5.54087019 27.6662925,5.15640865 27.6662925,4.68269712 C27.6662925,4.20898558 27.2782125,3.82452404 26.8000425,3.82452404 L14.72625,3.82452404 C14.24808,3.82452404 13.86,4.20898558 13.86,4.68269712 C13.86,5.15640865 14.24808,5.54087019 14.72625,5.54087019 L14.72625,5.54087019 Z" id="Shape"></path>
                    <path d="M14.72625,8.9735625 L26.8000425,8.9735625 C27.2782125,8.9735625 27.6662925,8.58910096 27.6662925,8.11538942 C27.6662925,7.64167788 27.2782125,7.25721635 26.8000425,7.25721635 L14.72625,7.25721635 C14.24808,7.25721635 13.86,7.64167788 13.86,8.11538942 C13.86,8.58910096 14.24808,8.9735625 14.72625,8.9735625 L14.72625,8.9735625 Z" id="Shape"></path>
                    <path d="M14.72625,12.4062548 L26.8000425,12.4062548 C27.2782125,12.4062548 27.6662925,12.0217933 27.6662925,11.5480817 C27.6662925,11.0743702 27.2782125,10.6899087 26.8000425,10.6899087 L14.72625,10.6899087 C14.24808,10.6899087 13.86,11.0743702 13.86,11.5480817 C13.86,12.0217933 14.24808,12.4062548 14.72625,12.4062548 L14.72625,12.4062548 Z" id="Shape"></path>
                </g>
            </g>
        </g>
    </g>
</svg>