<?xml version="1.0" encoding="UTF-8"?>
<svg width="42px" height="42px" viewBox="0 0 42 42" version="1.1" xmlns="http://www.w3.org/2000/svg" xmlns:xlink="http://www.w3.org/1999/xlink">
    <!-- Generator: Sketch 41 (35326) - http://www.bohemiancoding.com/sketch -->
    <title>Outline Icon</title>
    <desc>Created with Sketch.</desc>
    <defs></defs>
    <g id="V2-Copy" stroke="none" stroke-width="1" fill="none" fill-rule="evenodd">
        <g id="HomePage" transform="translate(-697.000000, -1373.000000)" fill="#7B61D5">
            <g id="Business-Directory" transform="translate(539.000000, 1373.000000)">
                <g id="Outline-Icon" transform="translate(158.000000, 0.000000)">
                    <path d="M21,12.25 C24.3775,12.25 27.125,9.5025 27.125,6.125 C27.125,2.7475 24.3775,0 21,0 C17.6225,0 14.875,2.7475 14.875,6.125 C14.875,9.5025 17.6225,12.25 21,12.25 L21,12.25 Z M21,1.75 C23.4115,1.75 25.375,3.7135 25.375,6.125 C25.375,8.5365 23.4115,10.5 21,10.5 C18.5885,10.5 16.625,8.5365 16.625,6.125 C16.625,3.7135 18.5885,1.75 21,1.75 L21,1.75 Z" id="Shape"></path>
                    <path d="M17.5,25.4345 L17.5,32.375 C17.5,32.858 17.892,33.25 18.375,33.25 L23.625,33.25 C24.108,33.25 24.5,32.858 24.5,32.375 L24.5,25.4345 C27.916,23.8 29.75,18.89825 29.75,14.875 C29.75,14.392 29.358,14 28.875,14 L13.125,14 C12.642,14 12.25,14.392 12.25,14.875 C12.25,18.8965 14.084,23.8 17.5,25.4345 L17.5,25.4345 Z M27.96675,15.75 C27.71125,19.18525 25.98925,23.0965 23.33625,24.02575 C22.9845,24.1465 22.75,24.479 22.75,24.85 L22.75,31.5 L19.25,31.5 L19.25,24.85 C19.25,24.479 19.0155,24.1465 18.66375,24.024 C16.01075,23.0965 14.2905,19.18525 14.03325,15.75 L27.96675,15.75 L27.96675,15.75 Z" id="Shape"></path>
                    <path d="M21,35.875 C13.97375,35.875 9.8595,34.43825 9.62325,33.70675 C9.6845,33.5125 10.6295,32.65325 14.14,32.039 C14.616,31.95675 14.9345,31.50175 14.8505,31.024 C14.7665,30.54975 14.315,30.233 13.83725,30.3135 C9.8805,31.00825 7.875,32.14225 7.875,33.6875 C7.875,36.7955 16.1245,37.625 21,37.625 C25.8755,37.625 34.125,36.7955 34.125,33.6875 C34.125,32.144 32.1265,31.01 28.1855,30.317 C27.71125,30.2365 27.25625,30.5515 27.17225,31.0275 C27.09,31.5035 27.40675,31.95675 27.88275,32.04075 C31.3775,32.65675 32.31725,33.51075 32.37675,33.66825 C32.1405,34.43825 28.02625,35.875 21,35.875 L21,35.875 Z" id="Shape"></path>
                    <path d="M28.11725,26.691 C27.63775,26.64375 27.20025,26.9675 27.13725,27.44875 C27.076,27.9265 27.41375,28.36575 27.89325,28.42875 C36.00625,29.47525 40.25,32.08625 40.25,34.125 C40.25,37.02125 32.3435,40.25 21,40.25 C9.6565,40.25 1.75,37.02125 1.75,34.125 C1.75,32.08625 5.9955,29.47525 14.11025,28.42875 C14.58975,28.36575 14.9275,27.9265 14.86625,27.44875 C14.80325,26.96925 14.3605,26.635 13.88625,26.691 C7.17325,27.559 0,29.967 0,34.125 C0,39.24025 10.82025,42 21,42 C31.17975,42 42,39.24025 42,34.125 C42,29.967 34.8285,27.559 28.11725,26.691 L28.11725,26.691 Z" id="Shape"></path>
                </g>
            </g>
        </g>
    </g>
</svg>