<?xml version="1.0" encoding="UTF-8" standalone="no"?>
<svg width="48px" height="42px" viewBox="0 0 48 42" version="1.1" xmlns="http://www.w3.org/2000/svg" xmlns:xlink="http://www.w3.org/1999/xlink">
    <!-- Generator: Sketch 41 (35326) - http://www.bohemiancoding.com/sketch -->
    <title>responsive</title>
    <desc>Created with Sketch.</desc>
    <defs></defs>
    <g id="Page-1" stroke="none" stroke-width="1" fill="none" fill-rule="evenodd">
        <g id="responsive" fill="#7B61D5">
            <g id="V2-Copy">
                <g id="HomePage">
                    <g id="E-Learning">
                        <g id="Outline-Icon-Copy">
                            <path d="M45,0 L3,0 C1.346,0 0,1.346 0,3 L0,33 C0,34.654 1.346,36 3,36 L20,36 L20,40 L14,40 C13.448,40 13,40.448 13,41 C13,41.552 13.448,42 14,42 L34,42 C34.552,42 35,41.552 35,41 C35,40.448 34.552,40 34,40 L28,40 L28,36 L45,36 C46.654,36 48,34.654 48,33 L48,3 C48,1.346 46.654,0 45,0 L45,0 Z M26,40 L22,40 L22,36 L26,36 L26,40 L26,40 Z M46,33 C46,33.55 45.55,34 45,34 L3,34 C2.45,34 2,33.55 2,33 L2,3 C2,2.45 2.45,2 3,2 L45,2 C45.55,2 46,2.45 46,3 L46,33 L46,33 Z" id="Shape"></path>
                            <path d="M17.0719557,30.4118575 L31.1775737,14.1302485 L26.1419567,14.080266 L30.3400449,6.46267472 L23.8550575,6.73847204 L17.9930297,18.0391899 L21.5142218,18.4365231 L17.0719557,30.4118575 Z M24.4760937,7.71296418 L28.6059963,7.53732528 L24.4582315,15.063603 L29.0067555,15.1087507 L19.9279047,25.5881425 L22.896263,17.5861269 L19.5504271,17.2085811 L24.4760937,7.71296418 Z" id="Path-2"></path>
                        </g>
                    </g>
                </g>
            </g>
        </g>
    </g>
</svg>