<?xml version="1.0" encoding="UTF-8" standalone="no"?>
<svg width="59px" height="45px" viewBox="0 0 59 45" version="1.1" xmlns="http://www.w3.org/2000/svg" xmlns:xlink="http://www.w3.org/1999/xlink">
    <!-- Generator: Sketch 41 (35326) - http://www.bohemiancoding.com/sketch -->
    <title>responsive-fully</title>
    <desc>Created with Sketch.</desc>
    <defs>
        <rect id="path-1" x="0" y="0" width="17" height="27" rx="3"></rect>
    </defs>
    <g id="Page-1" stroke="none" stroke-width="1" fill="none" fill-rule="evenodd">
        <g id="responsive-fully" transform="translate(0.148958, 0.232292)">
            <g id="V2-Copy" transform="translate(41.000000, 17.000000)">
                <g id="HomePage">
                    <g id="Group-12">
                        <g id="Group-11">
                            <g id="Rectangle-2-Clipped">
                                <mask id="mask-2" fill="white">
                                    <use xlink:href="#path-1"></use>
                                </mask>
                                <g id="path-1"></g>
                                <g id="Rectangle-2" mask="url(#mask-2)" fill="#7B61D5">
                                    <g transform="translate(-1.000000, -1.000000)" id="path-1">
                                        <path d="M2,3.99263394 C2,2.88902526 2.8893548,2 4.00012623,2 L14.9998738,2 C16.1054354,2 17,2.89214236 17,3.99263394 L17,25.0073661 C17,26.1109747 16.1106452,27 14.9998738,27 L4.00012623,27 C2.89456456,27 2,26.1078576 2,25.0073661 L2,3.99263394 Z M0,3.99263394 L0,25.0073661 C0,27.2136429 1.79120715,29 4.00012623,29 L14.9998738,29 C17.2150488,29 19,27.2157102 19,25.0073661 L19,3.99263394 C19,1.78635713 17.2087928,0 14.9998738,0 L4.00012623,0 C1.78495119,0 0,1.7842898 0,3.99263394 Z"></path>
                                    </g>
                                </g>
                            </g>
                            <path d="M1.49600017,4.44078947 L15.5039998,4.44078947" id="Line" stroke="#7B61D5"></path>
                            <path d="M1.49600021,22.5 L15.5039998,22.5" id="Line" stroke="#7B61D5"></path>
                            <ellipse id="Oval-7" stroke="#7B61D5" stroke-width="0.25" cx="8.5" cy="24.2526316" rx="0.837681159" ry="0.805263158"></ellipse>
                        </g>
                    </g>
                </g>
            </g>
            <path d="M19.8510417,39.7677083 L19.8510417,36 L3.00261497,36 C1.34431651,36 7.10542736e-15,34.6544607 7.10542736e-15,32.9925801 L7.10542736e-15,3.00741988 C7.10542736e-15,1.34646775 1.33389258,0 3.00261497,0 L44.997385,0 C46.6556835,0 48,1.34553934 48,3.00741988 L48,17.3242188 L46.1971354,17.3242188 L46.1971354,2.69602114 C46.1971354,2.15109678 45.7494029,1.70273437 45.1970968,1.70273437 L2.80290324,1.70273437 C2.24225028,1.70273437 1.80286458,2.14744401 1.80286458,2.69602114 L1.80286458,33.3039789 C1.80286458,33.8489032 2.25059714,34.2972656 2.80290324,34.2972656 L41.4677083,34.2972656 L41.4677083,36 L27.8510417,36 L27.8510417,39.7677083 L33.9975383,39.7677083 C34.5511826,39.7677083 35,40.2115732 35,40.7677083 C35,41.3199931 34.5605417,41.7677083 33.9975383,41.7677083 L14.0024617,41.7677083 C13.4488174,41.7677083 13,41.3238435 13,40.7677083 C13,40.2154236 13.4394583,39.7677083 14.0024617,39.7677083 L19.8510417,39.7677083 Z M21.8510417,39.7677083 L21.8510417,36 L25.8510417,36 L25.8510417,39.7677083 L21.8510417,39.7677083 Z" id="Combined-Shape" fill="#7B61D5"></path>
        </g>
    </g>
</svg>