<?xml version="1.0" encoding="UTF-8"?>
<svg width="38px" height="44px" viewBox="0 0 38 44" version="1.1" xmlns="http://www.w3.org/2000/svg" xmlns:xlink="http://www.w3.org/1999/xlink">
    <!-- Generator: Sketch 41 (35326) - http://www.bohemiancoding.com/sketch -->
    <title>Shape</title>
    <desc>Created with Sketch.</desc>
    <defs></defs>
    <g id="V2-Copy" stroke="none" stroke-width="1" fill="none" fill-rule="evenodd">
        <g id="HomePage" transform="translate(-266.000000, -1104.000000)" fill="#7B61D5">
            <path d="M268.1,1148 C268.1,1147.7 268,1147.3 268,1147 C268,1137.6 275.6,1130 285,1130 C294.4,1130 302,1137.6 302,1147 C302,1147.3 302,1147.7 301.9,1148 L303.9,1148 C303.9,1147.7 304,1147.3 304,1147 C304,1138.4 298.3,1131.1 290.4,1128.8 C294.9,1126.7 298,1122.2 298,1117 C298,1109.8 292.2,1104 285,1104 C277.8,1104 272,1109.8 272,1117 C272,1122.2 275.1,1126.7 279.6,1128.8 C271.8,1131.1 266,1138.4 266,1147 C266,1147.3 266,1147.7 266.1,1148 L268.1,1148 L268.1,1148 Z M274,1117 C274,1110.9 278.9,1106 285,1106 C291.1,1106 296,1110.9 296,1117 C296,1123.1 291.1,1128 285,1128 C278.9,1128 274,1123.1 274,1117 L274,1117 Z" id="Shape"></path>
        </g>
    </g>
</svg>