<?xml version="1.0" encoding="UTF-8"?>
<svg width="58px" height="44px" viewBox="0 0 58 44" version="1.1" xmlns="http://www.w3.org/2000/svg" xmlns:xlink="http://www.w3.org/1999/xlink">
    <!-- Generator: Sketch 41.2 (35397) - http://www.bohemiancoding.com/sketch -->
    <title>Group</title>
    <desc>Created with Sketch.</desc>
    <defs></defs>
    <g id="Page-1" stroke="none" stroke-width="1" fill="none" fill-rule="evenodd">
        <g id="Group">
            <path d="M45,0 L3,0 C1.346,0 0,1.346 0,3 L0,33 C0,34.654 1.346,36 3,36 L20,36 L20,40 L14,40 C13.448,40 13,40.448 13,41 C13,41.552 13.448,42 14,42 L34,42 C34.552,42 35,41.552 35,41 C35,40.448 34.552,40 34,40 L28,40 L28,36 L45,36 C46.654,36 48,34.654 48,33 L48,3 C48,1.346 46.654,0 45,0 L45,0 Z M26,40 L22,40 L22,36 L26,36 L26,40 L26,40 Z M46,33 C46,33.55 45.55,34 45,34 L3,34 C2.45,34 2,33.55 2,33 L2,3 C2,2.45 2.45,2 3,2 L45,2 C45.55,2 46,2.45 46,3 L46,33 L46,33 Z" id="Shape" fill="#7B61D5"></path>
            <rect id="Rectangle" fill="#FFFFFF" x="39" y="16" width="9" height="20"></rect>
            <path d="M42,19.9926339 L42,41.0073661 C42,42.1078576 42.8945646,43 44.0001262,43 L54.9998738,43 C56.1106452,43 57,42.1109747 57,41.0073661 L57,19.9926339 C57,18.8921424 56.1054354,18 54.9998738,18 L44.0001262,18 C42.8893548,18 42,18.8890253 42,19.9926339 Z M41,19.9926339 C41,18.3398479 42.3339615,17 44.0001262,17 L54.9998738,17 C56.6567977,17 58,18.3389342 58,19.9926339 L58,41.0073661 C58,42.6601521 56.6660385,44 54.9998738,44 L44.0001262,44 C42.3432023,44 41,42.6610658 41,41.0073661 L41,19.9926339 Z" id="Rectangle-2" fill="#7B61D5"></path>
            <path d="M49.5,30.95 C48.0633158,30.95 46.8947368,29.83985 46.8947368,28.475 C46.8947368,27.11015 48.0633158,26 49.5,26 C50.9366842,26 52.1052632,27.11015 52.1052632,28.475 C52.1052632,29.83985 50.9366842,30.95 49.5,30.95 Z M49.5,26.45 C48.3247895,26.45 47.3684211,27.35855 47.3684211,28.475 C47.3684211,29.59145 48.3247895,30.5 49.5,30.5 C50.6752105,30.5 51.6315789,29.59145 51.6315789,28.475 C51.6315789,27.35855 50.6752105,26.45 49.5,26.45 Z" id="Shape" fill="#7B61D5"></path>
            <path d="M53.2894737,35 L45.7105263,35 C45.3187895,35 45,34.69715 45,34.325 C45,34.2944 45.0066316,33.56675 45.5802632,32.84 C45.9142105,32.417 46.3713158,32.08085 46.9392632,31.84145 C47.6327368,31.5485 48.4943684,31.4 49.5,31.4 C50.5056316,31.4 51.3672632,31.5485 52.0607368,31.84145 C52.6286842,32.0813 53.0857895,32.417 53.4197368,32.84 C53.9933684,33.56675 54,34.2944 54,34.325 C54,34.69715 53.6812105,35 53.2894737,35 Z M49.5,31.85 C47.8482632,31.85 46.6294737,32.27885 45.9753158,33.0902 C45.4850526,33.69815 45.4741579,34.3196 45.4736842,34.3259 C45.4736842,34.4492 45.5797895,34.55 45.7105263,34.55 L53.2894737,34.55 C53.4202105,34.55 53.5263158,34.4492 53.5263158,34.325 C53.5263158,34.3196 53.5154211,33.69815 53.0246842,33.0902 C52.3700526,32.27885 51.1512632,31.85 49.5,31.85 Z" id="Shape" fill="#7B61D5"></path>
            <polygon id="Line" fill="#7B61D5" points="42.0028986 21.9407895 57.0108982 21.9407895 57.0108982 20.9407895 42.0028986 20.9407895"></polygon>
            <polygon id="Line" fill="#7B61D5" points="41.6333333 40 56.6413329 40 56.6413329 39 41.6333333 39"></polygon>
            <path d="M49.2289855,42.1828947 C49.7595799,42.1828947 50.1916667,41.7675296 50.1916667,41.2526316 C50.1916667,40.7377335 49.7595799,40.3223684 49.2289855,40.3223684 C48.6983911,40.3223684 48.2663043,40.7377335 48.2663043,41.2526316 C48.2663043,41.7675296 48.6983911,42.1828947 49.2289855,42.1828947 Z M49.2289855,41.9328947 C48.8343029,41.9328947 48.5163043,41.6272027 48.5163043,41.2526316 C48.5163043,40.8780605 48.8343029,40.5723684 49.2289855,40.5723684 C49.6236681,40.5723684 49.9416667,40.8780605 49.9416667,41.2526316 C49.9416667,41.6272027 49.6236681,41.9328947 49.2289855,41.9328947 Z" id="Oval-7" fill="#7B61D5"></path>
            <path d="M25.5,18 C22.467,18 20,15.533 20,12.5 C20,9.467 22.467,7 25.5,7 C28.533,7 31,9.467 31,12.5 C31,15.533 28.533,18 25.5,18 Z M25.5,8 C23.019,8 21,10.019 21,12.5 C21,14.981 23.019,17 25.5,17 C27.981,17 30,14.981 30,12.5 C30,10.019 27.981,8 25.5,8 Z" id="Shape" fill="#7B61D5"></path>
            <path d="M33.5,27 L17.5,27 C16.673,27 16,26.327 16,25.5 C16,25.432 16.014,23.815 17.225,22.2 C17.93,21.26 18.895,20.513 20.094,19.981 C21.558,19.33 23.377,19 25.5,19 C27.623,19 29.442,19.33 30.906,19.981 C32.105,20.514 33.07,21.26 33.775,22.2 C34.986,23.815 35,25.432 35,25.5 C35,26.327 34.327,27 33.5,27 Z M25.5,20 C22.013,20 19.44,20.953 18.059,22.756 C17.024,24.107 17.001,25.488 17,25.502 C17,25.776 17.224,26 17.5,26 L33.5,26 C33.776,26 34,25.776 34,25.5 C34,25.488 33.977,24.107 32.941,22.756 C31.559,20.953 28.986,20 25.5,20 Z" id="Shape" fill="#7B61D5"></path>
        </g>
    </g>
</svg>