<?xml version="1.0" encoding="UTF-8"?>
<svg width="42px" height="43px" viewBox="0 0 42 43" version="1.1" xmlns="http://www.w3.org/2000/svg" xmlns:xlink="http://www.w3.org/1999/xlink">
    <!-- Generator: Sketch 41 (35326) - http://www.bohemiancoding.com/sketch -->
    <title>document_-_book_paper_2_</title>
    <desc>Created with Sketch.</desc>
    <defs></defs>
    <g id="V2-Copy" stroke="none" stroke-width="1" fill="none" fill-rule="evenodd">
        <g id="HomePage" transform="translate(-1126.000000, -1101.000000)" fill="#7B61D5">
            <g id="Blog" transform="translate(539.500000, 1101.000000)">
                <g id="document_-_book_paper_2_" transform="translate(587.000000, 0.000000)">
                    <path d="M11.275,20.64 L26.2229167,20.64 C27.7604167,20.64 28.95625,19.436 28.95625,17.888 L28.95625,9.632 C28.95625,8.084 27.675,6.88 26.2229167,6.88 L11.275,6.88 C9.7375,6.88 8.54166667,8.084 8.54166667,9.632 L8.54166667,17.888 C8.54166667,19.436 9.82291667,20.64 11.275,20.64 L11.275,20.64 Z M10.25,10.32 C10.25,9.374 11.01875,8.6 11.9583333,8.6 L25.625,8.6 C26.5645833,8.6 27.3333333,9.374 27.3333333,10.32 L27.3333333,17.2 C27.3333333,18.146 26.5645833,18.92 25.625,18.92 L11.9583333,18.92 C11.01875,18.92 10.25,18.146 10.25,17.2 L10.25,10.32 L10.25,10.32 Z M8.54166667,27.52 L29.0416667,27.52 L29.0416667,25.8 L8.54166667,25.8 L8.54166667,27.52 L8.54166667,27.52 Z M41,15.48 L41,5.16 L37.5833333,5.16 L37.5833333,2.666 C37.5833333,1.204 36.3875,0 34.9354167,0 L2.73333333,0 C1.28125,0 0.0854166667,1.204 0.0854166667,2.666 L0.0854166667,40.248 C0.0854166667,41.71 1.28125,42.914 2.73333333,42.914 L34.9354167,42.914 C36.3875,42.914 37.5833333,41.71 37.5833333,40.248 L37.5833333,34.314 L39.2916667,34.314 L39.2916667,29.154 L37.5833333,29.154 L37.5833333,23.994 L39.2916667,23.994 L39.2916667,18.834 L37.5833333,18.834 L37.5833333,15.394 L41,15.394 L41,15.48 Z M37.5833333,6.88 L39.2916667,6.88 L39.2916667,13.76 L37.5833333,13.76 L37.5833333,6.88 L37.5833333,6.88 Z M35.875,5.16 L35.875,15.48 L35.875,18.92 L35.875,24.08 L35.875,29.24 L35.875,34.4 L35.875,39.904 C35.875,40.678 35.2770833,41.28 34.5083333,41.28 L3.075,41.28 C2.30625,41.28 1.70833333,40.678 1.70833333,39.904 L1.70833333,3.01 C1.70833333,2.236 2.30625,1.634 3.075,1.634 L34.5083333,1.634 C35.2770833,1.634 35.875,2.236 35.875,3.01 L35.875,5.16 L35.875,5.16 Z M8.54166667,34.4 L29.0416667,34.4 L29.0416667,32.68 L8.54166667,32.68 L8.54166667,34.4 L8.54166667,34.4 Z" id="Shape"></path>
                </g>
            </g>
        </g>
    </g>
</svg>